<?xml version="1.0" encoding="UTF-8" standalone="no"?><!DOCTYPE svg PUBLIC "-//W3C//DTD SVG 1.1//EN" "http://www.w3.org/Graphics/SVG/1.1/DTD/svg11.dtd">
<svg width="32px" height="32px" version="1.1" 
    xmlns="http://www.w3.org/2000/svg" 
    xmlns:xlink="http://www.w3.org/1999/xlink" xml:space="preserve" 
    xmlns:serif="http://www.serif.com/" style="fill-rule:evenodd;clip-rule:evenodd;stroke-linejoin:round;stroke-miterlimit:2;">
    <g transform="scale(.25)">
        <g transform="matrix(0.771294,0,0,0.87415,-364.822,-233.024)">
            <rect x="473" y="266" width="166" height="147"/>
        </g>
        <g transform="matrix(3.87305,0,0,3.88712,-1265.65,-1020.77)">
            <g transform="matrix(20.8333,0,0,20.8333,328.125,289.414)">
                <path d="M0.947,-0.296C0.947,-0.211 0.926,-0.138 0.885,-0.077C0.843,-0.016 0.788,0.014 0.719,0.014C0.682,0.014 0.652,0.003 0.628,-0.019C0.604,-0.041 0.592,-0.071 0.592,-0.109L0.588,-0.109C0.551,-0.027 0.498,0.014 0.431,0.014C0.388,0.014 0.356,-0.004 0.333,-0.041C0.31,-0.078 0.299,-0.123 0.299,-0.178C0.299,-0.255 0.32,-0.324 0.362,-0.385C0.405,-0.447 0.463,-0.478 0.537,-0.478C0.583,-0.478 0.614,-0.463 0.631,-0.434L0.637,-0.434L0.646,-0.464L0.708,-0.474C0.681,-0.318 0.667,-0.224 0.667,-0.193C0.667,-0.144 0.673,-0.108 0.684,-0.086C0.696,-0.063 0.718,-0.052 0.751,-0.052C0.783,-0.052 0.81,-0.075 0.833,-0.12C0.855,-0.165 0.866,-0.219 0.866,-0.281C0.866,-0.378 0.837,-0.463 0.778,-0.536C0.72,-0.608 0.629,-0.645 0.506,-0.645C0.394,-0.645 0.306,-0.603 0.241,-0.521C0.176,-0.439 0.143,-0.343 0.143,-0.233C0.143,-0.126 0.175,-0.035 0.238,0.041C0.301,0.116 0.39,0.154 0.506,0.154C0.557,0.154 0.603,0.147 0.644,0.132L0.654,0.217C0.613,0.227 0.563,0.232 0.504,0.232C0.364,0.232 0.256,0.186 0.179,0.094C0.102,0.002 0.063,-0.108 0.063,-0.236C0.063,-0.366 0.103,-0.479 0.181,-0.575C0.259,-0.672 0.367,-0.72 0.504,-0.72C0.65,-0.72 0.76,-0.678 0.835,-0.593C0.91,-0.508 0.947,-0.409 0.947,-0.296ZM0.616,-0.379C0.601,-0.398 0.576,-0.408 0.542,-0.408C0.491,-0.408 0.451,-0.384 0.422,-0.337C0.392,-0.291 0.377,-0.239 0.377,-0.183C0.377,-0.146 0.384,-0.116 0.398,-0.092C0.412,-0.069 0.432,-0.057 0.458,-0.057C0.495,-0.057 0.529,-0.086 0.562,-0.145C0.598,-0.21 0.616,-0.288 0.616,-0.379Z" style="fill:white;fill-rule:nonzero;"/>
            </g>
        </g>
        <g transform="matrix(4.20043,0,0,4.21569,-1302.2,-1159.82)">
            <g transform="matrix(20.8333,0,0,20.8333,328.125,289.374)">
                <path d="M0.503,-0.179L0.394,-0.179L0.376,0L0.304,0L0.322,-0.179L0.197,-0.179L0.179,0L0.107,0L0.125,-0.179L0.021,-0.179L0.021,-0.243L0.131,-0.243L0.149,-0.414L0.046,-0.414L0.046,-0.477L0.155,-0.477L0.172,-0.638L0.243,-0.638L0.227,-0.477L0.352,-0.477L0.369,-0.638L0.441,-0.638L0.424,-0.477L0.529,-0.477L0.529,-0.414L0.417,-0.414L0.4,-0.243L0.503,-0.243L0.503,-0.179ZM0.329,-0.243L0.346,-0.414L0.221,-0.414L0.204,-0.243L0.329,-0.243Z" style="fill:white;fill-rule:nonzero;"/>
            </g>
        </g>
    </g>
</svg>